<svg width="960" height="960" viewBox="0 0 960 960" fill="none" xmlns="http://www.w3.org/2000/svg">
<path fill-rule="evenodd" clip-rule="evenodd" d="M130.086 807.587C130.086 807.587 479.394 605.914 556.502 561.396C559.584 559.617 563.382 559.617 566.464 561.396C569.547 563.176 571.446 566.464 571.446 570.023C571.446 646.38 571.446 950.125 571.446 950.125C541.663 956.011 510.943 959.041 479.521 959.041C341.774 959.041 217.515 900.834 130.086 807.587ZM588.918 946.332V453.79C588.918 450.231 590.817 446.943 593.9 445.163C596.982 443.384 600.779 443.384 603.861 445.163C669.985 483.339 933.015 635.2 933.015 635.2C880.001 789.814 750.06 908.798 588.918 946.332ZM20.4861 340.817C20.4861 340.817 369.975 542.595 447.105 587.126C450.187 588.905 452.086 592.194 452.086 595.753C452.086 599.312 450.187 602.601 447.105 604.381C380.999 642.547 118.102 794.33 118.102 794.33C44.5043 710.101 0 599.966 0 479.52C0 431.327 7.12567 384.784 20.4861 340.817ZM840.939 164.71C914.538 248.939 959.041 359.074 959.041 479.52C959.041 527.713 951.916 574.256 938.556 618.223C938.556 618.223 594.25 419.438 587.5 415.541C587.115 415.317 586.746 415.066 586.395 414.792C586.085 414.346 585.579 414.086 584.963 413.853C584.517 413.677 584.085 413.467 583.669 413.227C578.812 410.524 535.423 385.474 511.937 371.914C508.855 370.135 506.956 366.846 506.956 363.287C506.956 359.728 508.855 356.439 511.937 354.659C578.043 316.493 840.939 164.71 840.939 164.71ZM370.124 12.7083V505.25C370.124 508.809 368.225 512.097 365.142 513.877C362.06 515.656 358.262 515.656 355.181 513.877C289.057 475.701 26.0274 323.84 26.0274 323.84C79.0403 169.226 208.981 50.2422 370.124 12.7083ZM387.596 8.91524C417.378 3.02865 448.098 0 479.521 0C617.268 0 741.527 58.2061 828.956 151.453C828.956 151.453 479.648 353.126 402.54 397.644C399.458 399.423 395.66 399.423 392.578 397.644C389.495 395.864 387.596 392.576 387.596 389.017C387.596 312.66 387.596 8.91524 387.596 8.91524Z" fill="#F7F7F7"/>
</svg>
